<?xml version="1.0" encoding="UTF-8" standalone="no"?>
<!-- Created with Inkscape (http://www.inkscape.org/) -->

<svg
   xmlns:dc="http://purl.org/dc/elements/1.1/"
   xmlns:cc="http://creativecommons.org/ns#"
   xmlns:rdf="http://www.w3.org/1999/02/22-rdf-syntax-ns#"
   xmlns:svg="http://www.w3.org/2000/svg"
   xmlns="http://www.w3.org/2000/svg"
   xmlns:sodipodi="http://sodipodi.sourceforge.net/DTD/sodipodi-0.dtd"
   xmlns:inkscape="http://www.inkscape.org/namespaces/inkscape"
   width="512"
   height="512"
   id="svg2"
   version="1.1"
   inkscape:version="0.48.4 r9939"
   sodipodi:docname="sirenlogo.svg">
  <defs
     id="defs4">
    <marker
       style="overflow:visible"
       inkscape:stockid="InfiniteLineStart"
       id="InfiniteLineStart"
       refX="0"
       refY="0"
       orient="auto">
      <g
         id="g4054"
         style="fill:#000000"
         transform="translate(-13,0)">
        <circle
           d="M 3.8,0 C 3.8,0.44182781 3.4418278,0.80000001 3,0.80000001 2.5581722,0.80000001 2.2,0.44182781 2.2,0 c 0,-0.44182781 0.3581722,-0.80000001 0.8,-0.80000001 0.4418278,0 0.8,0.3581722 0.8,0.80000001 z"
           id="circle4056"
           r="0.8"
           cy="0"
           cx="3" />
        <circle
           d="M 7.3,0 C 7.3,0.44182781 6.9418278,0.80000001 6.5,0.80000001 6.0581722,0.80000001 5.7,0.44182781 5.7,0 c 0,-0.44182781 0.3581722,-0.80000001 0.8,-0.80000001 0.4418278,0 0.8,0.3581722 0.8,0.80000001 z"
           id="circle4058"
           r="0.8"
           cy="0"
           cx="6.5" />
        <circle
           d="M 10.8,0 C 10.8,0.44182781 10.441828,0.80000001 10,0.80000001 9.5581722,0.80000001 9.2,0.44182781 9.2,0 c 0,-0.44182781 0.3581722,-0.80000001 0.8,-0.80000001 0.441828,0 0.8,0.3581722 0.8,0.80000001 z"
           id="circle4060"
           r="0.8"
           cy="0"
           cx="10" />
      </g>
    </marker>
    <marker
       style="overflow:visible"
       inkscape:stockid="InfiniteLineEnd"
       id="InfiniteLineEnd"
       refX="0"
       refY="0"
       orient="auto">
      <g
         id="g4045"
         style="fill:#000000">
        <circle
           id="circle4047"
           r="0.8"
           cy="0"
           cx="3" />
        <circle
           id="circle4049"
           r="0.8"
           cy="0"
           cx="6.5" />
        <circle
           id="circle4051"
           r="0.8"
           cy="0"
           cx="10" />
      </g>
    </marker>
  </defs>
  <sodipodi:namedview
     id="base"
     pagecolor="#ffffff"
     bordercolor="#666666"
     borderopacity="1.0"
     inkscape:pageopacity="0.0"
     inkscape:pageshadow="2"
     inkscape:zoom="0.98994949"
     inkscape:cx="453.93655"
     inkscape:cy="170.0904"
     inkscape:document-units="px"
     inkscape:current-layer="layer2"
     showgrid="false"
     inkscape:window-width="1600"
     inkscape:window-height="845"
     inkscape:window-x="1366"
     inkscape:window-y="30"
     inkscape:window-maximized="1"
     inkscape:snap-grids="true">
    <inkscape:grid
       type="xygrid"
       id="grid3792"
       empspacing="5"
       visible="true"
       enabled="true"
       snapvisiblegridlinesonly="true" />
  </sodipodi:namedview>
  <metadata
     id="metadata7">
    <rdf:RDF>
      <cc:Work
         rdf:about="">
        <dc:format>image/svg+xml</dc:format>
        <dc:type
           rdf:resource="http://purl.org/dc/dcmitype/StillImage" />
        <dc:title></dc:title>
      </cc:Work>
    </rdf:RDF>
  </metadata>
  <g
     inkscape:label="Layer 1"
     inkscape:groupmode="layer"
     id="layer1"
     transform="translate(0,-540.36218)">
    <path
       style="fill:#aad400;stroke:none"
       d="m 185,972.36218 65,60.00002 65,-60.00002 -65,35.00002 z"
       id="path3790"
       inkscape:connector-curvature="0"
       sodipodi:nodetypes="ccccc" />
    <g
       id="g4647">
      <g
         transform="translate(20,-20)"
         id="g3780">
        <path
           sodipodi:type="arc"
           style="fill:none;stroke:#aad400;stroke-width:25;stroke-linecap:butt;stroke-linejoin:miter;stroke-miterlimit:4;stroke-opacity:1;stroke-dasharray:none"
           id="path2985"
           sodipodi:cx="106.06602"
           sodipodi:cy="138.24356"
           sodipodi:rx="53.538086"
           sodipodi:ry="53.538086"
           d="m 159.6041,138.24356 c 0,29.56827 -23.96981,53.53809 -53.53808,53.53809 -29.568271,0 -53.538089,-23.96982 -53.538089,-53.53809 0,-29.56827 23.969818,-53.538085 53.538089,-53.538085 29.56827,0 53.53808,23.969815 53.53808,53.538085 z"
           transform="matrix(-1,0,0,1,237.16639,540.36218)" />
        <path
           style="fill:#aad400;stroke:none"
           d="m 196.69937,684.66665 c 0,0 18.85483,42.21964 -110.106633,167.68533 C -4.9893059,941.4515 120.93792,1018.017 183.56739,959.42815 128.73877,1009.9358 69.47551,978.43272 51.51778,956.39769 32.077583,932.5436 19.567771,896.2062 83.842661,821.03725 143.44166,751.33672 152.28049,727.09306 152.28049,727.09306 z"
           id="path2987"
           inkscape:connector-curvature="0"
           sodipodi:nodetypes="cscsscc" />
      </g>
      <g
         transform="matrix(-1,0,0,1,487.49624,-20)"
         id="g3784">
        <path
           transform="matrix(-1,0,0,1,237.16639,540.36218)"
           d="m 159.6041,138.24356 c 0,29.56827 -23.96981,53.53809 -53.53808,53.53809 -29.568271,0 -53.538089,-23.96982 -53.538089,-53.53809 0,-29.56827 23.969818,-53.538085 53.538089,-53.538085 29.56827,0 53.53808,23.969815 53.53808,53.538085 z"
           sodipodi:ry="53.538086"
           sodipodi:rx="53.538086"
           sodipodi:cy="138.24356"
           sodipodi:cx="106.06602"
           id="path3786"
           style="fill:none;stroke:#aad400;stroke-width:25;stroke-linecap:butt;stroke-linejoin:miter;stroke-miterlimit:4;stroke-opacity:1;stroke-dasharray:none"
           sodipodi:type="arc" />
        <path
           sodipodi:nodetypes="cscsscc"
           inkscape:connector-curvature="0"
           id="path3788"
           d="m 196.69937,684.66665 c 0,0 18.85483,42.21964 -110.106633,167.68533 C -4.9893059,941.4515 120.93792,1018.017 183.56739,959.42815 128.73877,1009.9358 69.47551,978.43272 51.51778,956.39769 32.077583,932.5436 19.567771,896.2062 83.842661,821.03725 143.44166,751.33672 152.28049,727.09306 152.28049,727.09306 z"
           style="fill:#aad400;stroke:none" />
      </g>
      <path
         sodipodi:nodetypes="ccccc"
         transform="translate(0,540.36218)"
         inkscape:connector-curvature="0"
         id="path4636"
         d="m 210,152 0,300 5,0 -5,-300 z"
         style="fill:#aad400;stroke:none;stroke-width:1px;stroke-linecap:butt;stroke-linejoin:miter;stroke-opacity:1" />
      <path
         sodipodi:nodetypes="cccc"
         style="fill:#aad400;stroke:none"
         d="m 250,597.36218 -5,415.00002 10,0 z"
         id="path4638"
         inkscape:connector-curvature="0" />
      <path
         sodipodi:nodetypes="ccccc"
         inkscape:connector-curvature="0"
         id="path4640"
         d="m 293,692.36218 -5,295 5,0 0,-295 z"
         style="fill:#aad400;stroke:none" />
    </g>
  </g>
  <g
     inkscape:groupmode="layer"
     id="layer2"
     inkscape:label="Name">
    <text
       xml:space="preserve"
       style="font-size:40px;font-style:normal;font-weight:normal;line-height:125%;letter-spacing:0px;word-spacing:0px;fill:#bec8b7;fill-opacity:1;stroke:none;font-family:Sans"
       x="59.398869"
       y="576.62946"
       id="text4643"
       sodipodi:linespacing="125%"><tspan
         sodipodi:role="line"
         id="tspan4645"
         x="59.398869"
         y="576.62946"
         style="font-size:72px;font-style:normal;font-variant:normal;font-weight:100;font-stretch:normal;text-align:start;letter-spacing:45.86000061000000017px;text-anchor:start;fill:#bec8b7;font-family:Raleway;-inkscape-font-specification:Raleway Thin;writing-mode:lr;line-height:125%"
         dx="0">SIREN</tspan></text>
  </g>
</svg>
