<?xml version="1.0" encoding="UTF-8" standalone="no"?>
<!-- Created with Inkscape (http://www.inkscape.org/) -->

<svg
   xmlns:dc="http://purl.org/dc/elements/1.1/"
   xmlns:cc="http://creativecommons.org/ns#"
   xmlns:rdf="http://www.w3.org/1999/02/22-rdf-syntax-ns#"
   xmlns:svg="http://www.w3.org/2000/svg"
   xmlns="http://www.w3.org/2000/svg"
   xmlns:sodipodi="http://sodipodi.sourceforge.net/DTD/sodipodi-0.dtd"
   xmlns:inkscape="http://www.inkscape.org/namespaces/inkscape"
   width="435.83286"
   height="564.77069"
   id="svg2"
   version="1.1"
   inkscape:version="0.48.4 r9939"
   sodipodi:docname="logo-with-text2.svg"
   inkscape:export-filename="/home/quil/Personal/siren/logo-with-text.png"
   inkscape:export-xdpi="68.567848"
   inkscape:export-ydpi="68.567848">
  <defs
     id="defs4">
    <marker
       style="overflow:visible"
       inkscape:stockid="InfiniteLineStart"
       id="InfiniteLineStart"
       refX="0"
       refY="0"
       orient="auto">
      <g
         id="g4054"
         style="fill:#000000"
         transform="translate(-13,0)">
        <circle
           d="M 3.8,0 C 3.8,0.44182781 3.4418278,0.80000001 3,0.80000001 2.5581722,0.80000001 2.2,0.44182781 2.2,0 c 0,-0.44182781 0.3581722,-0.80000001 0.8,-0.80000001 0.4418278,0 0.8,0.3581722 0.8,0.80000001 z"
           id="circle4056"
           r="0.80000001"
           cy="0"
           cx="3"
           sodipodi:cx="3"
           sodipodi:cy="0"
           sodipodi:rx="0.80000001"
           sodipodi:ry="0.80000001" />
        <circle
           d="M 7.3,0 C 7.3,0.44182781 6.9418278,0.80000001 6.5,0.80000001 6.0581722,0.80000001 5.7,0.44182781 5.7,0 c 0,-0.44182781 0.3581722,-0.80000001 0.8,-0.80000001 0.4418278,0 0.8,0.3581722 0.8,0.80000001 z"
           id="circle4058"
           r="0.80000001"
           cy="0"
           cx="6.5"
           sodipodi:cx="6.5"
           sodipodi:cy="0"
           sodipodi:rx="0.80000001"
           sodipodi:ry="0.80000001" />
        <circle
           d="M 10.8,0 C 10.8,0.44182781 10.441828,0.80000001 10,0.80000001 9.5581722,0.80000001 9.2,0.44182781 9.2,0 c 0,-0.44182781 0.3581722,-0.80000001 0.8,-0.80000001 0.441828,0 0.8,0.3581722 0.8,0.80000001 z"
           id="circle4060"
           r="0.80000001"
           cy="0"
           cx="10"
           sodipodi:cx="10"
           sodipodi:cy="0"
           sodipodi:rx="0.80000001"
           sodipodi:ry="0.80000001" />
      </g>
    </marker>
    <marker
       style="overflow:visible"
       inkscape:stockid="InfiniteLineEnd"
       id="InfiniteLineEnd"
       refX="0"
       refY="0"
       orient="auto">
      <g
         id="g4045"
         style="fill:#000000">
        <circle
           id="circle4047"
           r="0.80000001"
           cy="0"
           cx="3"
           sodipodi:cx="3"
           sodipodi:cy="0"
           sodipodi:rx="0.80000001"
           sodipodi:ry="0.80000001" />
        <circle
           id="circle4049"
           r="0.80000001"
           cy="0"
           cx="6.5"
           sodipodi:cx="6.5"
           sodipodi:cy="0"
           sodipodi:rx="0.80000001"
           sodipodi:ry="0.80000001" />
        <circle
           id="circle4051"
           r="0.80000001"
           cy="0"
           cx="10"
           sodipodi:cx="10"
           sodipodi:cy="0"
           sodipodi:rx="0.80000001"
           sodipodi:ry="0.80000001" />
      </g>
    </marker>
  </defs>
  <sodipodi:namedview
     id="base"
     pagecolor="#ffffff"
     bordercolor="#666666"
     borderopacity="1.0"
     inkscape:pageopacity="0.0"
     inkscape:pageshadow="2"
     inkscape:zoom="0.98994949"
     inkscape:cx="134.46193"
     inkscape:cy="299.48209"
     inkscape:document-units="px"
     inkscape:current-layer="layer1"
     showgrid="false"
     inkscape:window-width="1600"
     inkscape:window-height="845"
     inkscape:window-x="1366"
     inkscape:window-y="30"
     inkscape:window-maximized="1"
     inkscape:snap-grids="true"
     fit-margin-top="20"
     fit-margin-left="20"
     fit-margin-right="20"
     fit-margin-bottom="20">
    <inkscape:grid
       type="xygrid"
       id="grid3792"
       empspacing="5"
       visible="true"
       enabled="true"
       snapvisiblegridlinesonly="true"
       originx="-35.831695px"
       originy="84.989456px" />
  </sodipodi:namedview>
  <metadata
     id="metadata7">
    <rdf:RDF>
      <cc:Work
         rdf:about="">
        <dc:format>image/svg+xml</dc:format>
        <dc:type
           rdf:resource="http://purl.org/dc/dcmitype/StillImage" />
        <dc:title></dc:title>
      </cc:Work>
    </rdf:RDF>
  </metadata>
  <g
     inkscape:label="Layer 1"
     inkscape:groupmode="layer"
     id="layer1"
     transform="translate(-35.831695,-572.58093)">
    <path
       style="fill:#dde9af;stroke:none"
       d="M 80,1032.3622 250.33171,952.36218 430,1032.3622 250.33171,977.36218 z"
       id="path3790"
       inkscape:connector-curvature="0"
       sodipodi:nodetypes="ccccc" />
    <path
       sodipodi:type="arc"
       style="fill:none;stroke:#aad400;stroke-width:25;stroke-linecap:butt;stroke-linejoin:miter;stroke-miterlimit:4;stroke-opacity:1;stroke-dasharray:none"
       id="path2985"
       sodipodi:cx="106.06602"
       sodipodi:cy="138.24356"
       sodipodi:rx="53.538086"
       sodipodi:ry="53.538086"
       d="m 159.6041,138.24356 c 0,29.56827 -23.96981,53.53809 -53.53808,53.53809 -29.568271,0 -53.538089,-23.96982 -53.538089,-53.53809 0,-29.56827 23.969818,-53.538085 53.538089,-53.538085 29.56827,0 53.53808,23.969815 53.53808,53.538085 z"
       transform="matrix(-1,0,0,1,260.70195,520.36218)" />
    <path
       style="fill:#aad400;stroke:none"
       d="m 216.69937,664.66665 c 0,0 18.85483,42.21964 -110.10663,167.68533 C 15.010694,921.4515 140.93792,998.017 203.56739,939.42815 148.73877,989.9358 89.47551,958.43272 71.51778,936.39769 52.077583,912.5436 39.567771,876.2062 103.84266,801.03725 c 59.599,-69.70053 68.43783,-93.94419 68.43783,-93.94419 z"
       id="path2987"
       inkscape:connector-curvature="0"
       sodipodi:nodetypes="cscsscc" />
    <path
       transform="translate(240.79429,520.36218)"
       d="m 159.6041,138.24356 c 0,29.56827 -23.96981,53.53809 -53.53808,53.53809 -29.568271,0 -53.538089,-23.96982 -53.538089,-53.53809 0,-29.56827 23.969818,-53.538085 53.538089,-53.538085 29.56827,0 53.53808,23.969815 53.53808,53.538085 z"
       sodipodi:ry="53.538086"
       sodipodi:rx="53.538086"
       sodipodi:cy="138.24356"
       sodipodi:cx="106.06602"
       id="path3786"
       style="fill:none;stroke:#aad400;stroke-width:25;stroke-linecap:butt;stroke-linejoin:miter;stroke-miterlimit:4;stroke-opacity:1;stroke-dasharray:none"
       sodipodi:type="arc" />
    <path
       sodipodi:nodetypes="cscsscc"
       inkscape:connector-curvature="0"
       id="path3788"
       d="m 284.79687,664.66665 c 0,0 -18.85483,42.21964 110.10663,167.68533 91.58205,89.09952 -34.34518,165.66502 -96.97465,107.07617 54.82862,50.50765 114.09188,19.00457 132.04961,-3.03046 19.4402,-23.85409 31.95001,-60.19149 -32.32488,-135.36044 -59.599,-69.70053 -68.43783,-93.94419 -68.43783,-93.94419 z"
       style="fill:#aad400;stroke:none" />
    <path
       style="fill:#dde9af;stroke:none"
       d="m 214.51513,703.59569 0.53792,268.76647 5,0 z"
       id="path4636"
       inkscape:connector-curvature="0"
       sodipodi:nodetypes="cccc" />
    <path
       inkscape:connector-curvature="0"
       id="path4638"
       d="m 250,637.36216 -9.89709,330 20,0 z"
       style="fill:#dde9af;stroke:none"
       sodipodi:nodetypes="cccc" />
    <path
       style="fill:#dde9af;stroke:none"
       d="M 280.46208,701.86923 280,972.36216 l 5,0 z"
       id="path4640"
       inkscape:connector-curvature="0"
       sodipodi:nodetypes="cccc" />
    <rect
       style="fill:#aad400;stroke:none"
       id="rect4229"
       width="143.44167"
       height="10"
       x="177.33427"
       y="708.93024" />
  </g>
  <g
     inkscape:groupmode="layer"
     id="layer2"
     inkscape:label="Name"
     transform="translate(-35.831695,-32.21875)">
    <text
       xml:space="preserve"
       style="font-size:40px;font-style:normal;font-weight:normal;line-height:125%;letter-spacing:0px;word-spacing:0px;fill:#bec8b7;fill-opacity:1;stroke:none;font-family:Sans"
       x="59.398869"
       y="576.62946"
       id="text4643"
       sodipodi:linespacing="125%"><tspan
         sodipodi:role="line"
         id="tspan4645"
         x="59.398869"
         y="576.62946"
         style="font-size:72px;font-style:normal;font-variant:normal;font-weight:100;font-stretch:normal;text-align:start;line-height:125%;letter-spacing:45.86000061px;writing-mode:lr-tb;text-anchor:start;fill:#bec8b7;font-family:Raleway;-inkscape-font-specification:Raleway Thin"
         dx="0">SIREN</tspan></text>
  </g>
</svg>
